Release Tittle :
Joker - Sing Raja 720p ~JamMafiaTMRG

Movie Name : Joker

StoryLine:

In 1947 when the maps of India and Pakistan were being drawn, an oversight ensured that the village of Paglapur didnâ™t find a place in either country. The village had the distinction of housing the largest mental asylum in the region and in the melee that ensued during partition, the asylum inmates broke loose, drove away the villagers and established their own republic in Paglapur. And thatâ™s how it stayed for the next 60 years! While the world outside changed, Paglapur remained isolated, with no electricity, television or sanity! Now, decades after the world forgot this village, a NASA scientist of Indian origin, Raj/Agasthya (same name as Akshay Kumar had in Jaaneman) and his beautiful wife, Diva find themselves on the road to Paglapur. Raj is working on a top secret project for creating a device to communicate with aliens. So why is he in a village whose colourful inhabitants include a man who speaks in gibberish, another who thinks he is a lamp post and everyone else who think Mahatma Gandhi is still around, fighting for independence?

IMDb
 
http://www.imdb.com/title/tt1918886/

File Info
General
Unique ID : 181856465017222591666961979262333568588 (0x88D047F9D20A6E92941F5E948837464C)
Format : Matroska
Format version : Version 2
File size : 46.4 MiB
Duration : 2mn 13s
Overall bit rate : 2 924 Kbps
Movie name : Ripper~JamMafia
Encoded date : UTC 2012-08-05 04:32:54
Writing application : mkvmerge v5.6.0 ('Kenya Kane') built on May 27 2012 16:44:04
Writing library : libebml v1.2.3 + libmatroska v1.3.0

Video
ID : 1
Format : MPEG-4 Visual
Format profile : Advanced Simple@L5
Format settings, BVOP : Yes
Format settings, QPel : No
Format settings, GMC : No warppoints
Format settings, Matrix : Default (H.263)
Codec ID : XVID
Codec ID/Hint : XviD
Duration : 2mn 13s
Bit rate : 2 418 Kbps
Width : 1 280 pixels
Height : 720 pixels
Display aspect ratio : 16:9
Frame rate : 25.000 fps
Color space : YUV
Chroma subsampling : 4:2:0
Bit depth : 8 bits
Scan type : Progressive
Compression mode : Lossy
Bits/(Pixel*Frame) : 0.105
Stream size : 38.3 MiB (83%)
Title : JamMafia
Writing library : XviD 1.2.1 (UTC 2008-12-04)
Default : Yes
Forced : No

Audio
ID : 2
Format : AC-3
Format/Info : Audio Coding 3
Mode extension : CM (complete main)
Format settings, Endianness : Big
Muxing mode : Header stripping
Codec ID : A_AC3
Duration : 2mn 13s
Bit rate mode : Constant
Bit rate : 448 Kbps
Channel(s) : 2 channels
Channel positions : Front: L R
Sampling rate : 44.1 KHz
Bit depth : 16 bits
Compression mode : Lossy
Stream size : 7.10 MiB (15%)
Title : JamMafia
Default : Yes
Forced : No



ScreenShots:..: 
http://img11.imageshack.us/img11/2839/singrajajoker720pjammaf.jpg


FootNote
Say Thanx If You Like the upload......
Video Song Provided to you JamMafia
JamMafia FB Page:
